<svg width="25" height="24" viewBox="0 0 25 24" fill="none" xmlns="http://www.w3.org/2000/svg">
<g clip-path="url(#clip0_3007_17487)">
<path fill-rule="evenodd" clip-rule="evenodd" d="M12.9392 1.5285C12.6822 1.50952 12.4245 1.50001 12.1667 1.5V0C12.4616 0.000143741 12.7563 0.0111512 13.0502 0.033L12.9392 1.5285ZM15.9452 2.2035C15.4644 2.01796 14.9706 1.86805 14.4677 1.755L14.7962 0.291C15.3707 0.42 15.9362 0.591 16.4852 0.804L15.9452 2.2035ZM18.0002 3.2685C17.7858 3.12547 17.5661 2.99038 17.3417 2.8635L18.0812 1.5585C18.5941 1.8491 19.0849 2.17699 19.5497 2.5395L18.6272 3.723C18.4239 3.56435 18.2147 3.41324 18.0002 3.27V3.2685ZM20.7512 5.9535C20.4545 5.53196 20.1272 5.13288 19.7717 4.7595L20.8577 3.7245C21.2627 4.152 21.6377 4.6095 21.9782 5.0895L20.7512 5.9535ZM21.8672 7.9815C21.7688 7.74369 21.6617 7.50953 21.5462 7.2795L22.8857 6.6045C23.1506 7.13113 23.3763 7.67661 23.5607 8.2365L22.1357 8.706C22.0551 8.4613 21.9656 8.21964 21.8672 7.9815ZM22.6622 11.742C22.6501 11.2265 22.6 10.7126 22.5122 10.2045L23.9897 9.9495C24.0902 10.5285 24.1487 11.1165 24.1637 11.7045L22.6637 11.742H22.6622ZM22.4657 14.049C22.5152 13.794 22.5557 13.5405 22.5872 13.284L24.0767 13.4685C24.0047 14.0537 23.8894 14.6328 23.7317 15.201L22.2857 14.8005C22.3547 14.553 22.4147 14.3025 22.4657 14.049ZM21.0377 17.6175C21.3137 17.1825 21.5567 16.7265 21.7667 16.2555L23.1377 16.863C22.8977 17.403 22.6202 17.922 22.3052 18.42L21.0377 17.6175ZM19.5917 19.425C19.7747 19.242 19.9502 19.053 20.1167 18.858L21.2537 19.8375C21.0612 20.0608 20.8606 20.2769 20.6522 20.4855L19.5917 19.425Z" fill="#0090B7"/>
<path fill-rule="evenodd" clip-rule="evenodd" d="M12.1668 1.5C10.4401 1.50012 8.74011 1.92607 7.21736 2.74011C5.69461 3.55415 4.39611 4.73115 3.43688 6.16687C2.47765 7.6026 1.88729 9.25272 1.71809 10.9711C1.54889 12.6895 1.80607 14.423 2.46686 16.0183C3.12765 17.6135 4.17165 19.0212 5.50638 20.1166C6.84112 21.212 8.4254 21.9613 10.1189 22.2982C11.8124 22.6351 13.5628 22.5492 15.2152 22.048C16.8675 21.5468 18.3708 20.6459 19.5918 19.425L20.6523 20.4855C19.2569 21.8817 17.5387 22.9121 15.6499 23.4855C13.761 24.0589 11.76 24.1575 9.82389 23.7727C7.88783 23.3879 6.07658 22.5315 4.55062 21.2793C3.02466 20.0272 1.8311 18.418 1.0757 16.5943C0.320295 14.7707 0.0263745 12.7888 0.219976 10.8244C0.413578 8.85999 1.08872 6.97365 2.1856 5.33253C3.28247 3.6914 4.7672 2.34617 6.50824 1.416C8.24927 0.485843 10.1929 -0.000523098 12.1668 4.22187e-07V1.5Z" fill="#0090B7"/>
<path fill-rule="evenodd" clip-rule="evenodd" d="M11.4167 4.5C11.6157 4.5 11.8064 4.57902 11.9471 4.71967C12.0877 4.86032 12.1667 5.05109 12.1667 5.25V13.065L17.0387 15.849C17.2064 15.9502 17.3279 16.1129 17.3772 16.3024C17.4265 16.492 17.3997 16.6933 17.3025 16.8633C17.2054 17.0333 17.0455 17.1586 16.8572 17.2124C16.6689 17.2661 16.467 17.2441 16.2947 17.151L11.0447 14.151C10.93 14.0854 10.8345 13.9907 10.7682 13.8764C10.7018 13.762 10.6668 13.6322 10.6667 13.5V5.25C10.6667 5.05109 10.7458 4.86032 10.8864 4.71967C11.0271 4.57902 11.2178 4.5 11.4167 4.5Z" fill="#0090B7"/>
</g>
<defs>
<clipPath id="clip0_3007_17487">
<rect width="24" height="24" fill="white" transform="translate(0.166748)"/>
</clipPath>
</defs>
</svg>
