<svg width="240" height="153" viewBox="0 0 240 153" fill="none" xmlns="http://www.w3.org/2000/svg">
<g clip-path="url(#clip0_1633_13332)">
<rect width="240" height="152.536" rx="11.7431" fill="#5252FF"/>
<circle cx="56.8807" cy="80.3668" r="102.385" fill="white" fill-opacity="0.1"/>
<circle cx="49.5413" cy="57.6147" r="125.138" fill="white" fill-opacity="0.1"/>
<path d="M20.3625 132.674C19.7392 132.674 19.2048 132.512 18.7596 132.187C18.3207 131.863 18.009 131.405 17.8245 130.813L18.8741 130.422C19.014 130.829 19.208 131.138 19.4561 131.348C19.7042 131.551 20.0095 131.653 20.3721 131.653C20.811 131.653 21.164 131.5 21.4311 131.195C21.6983 130.89 21.8319 130.486 21.8319 129.983V125.89H22.9768V130.002C22.9768 130.543 22.8687 131.014 22.6524 131.414C22.4362 131.815 22.1308 132.127 21.7365 132.349C21.3484 132.566 20.8905 132.674 20.3625 132.674ZM23.3046 132.569L25.9284 125.89H27.2547L29.8404 132.569H28.6095L27.9226 130.699H25.1842L24.4972 132.569H23.3046ZM25.5182 129.802H27.6077L26.5582 126.978L25.5182 129.802ZM30.5108 132.569V125.89H31.6271L35.1097 130.746L35.0906 125.89H36.1688V132.569H35.1479L31.5699 127.579L31.589 132.569H30.5108ZM37.5784 132.569V125.89H42.3586V126.863H38.7234V128.724H41.2614V129.678H38.7234V131.596H42.3968V132.569H37.5784ZM45.4522 132.569V125.89H48.4291C48.8426 125.89 49.2083 125.963 49.5263 126.109C49.8444 126.256 50.0893 126.462 50.261 126.73C50.4391 126.99 50.5282 127.296 50.5282 127.646C50.5282 127.989 50.4296 128.291 50.2324 128.552C50.0352 128.806 49.7712 128.997 49.4405 129.124C49.8476 129.245 50.1688 129.446 50.4041 129.726C50.6395 129.999 50.7572 130.327 50.7572 130.708C50.7572 131.077 50.6649 131.402 50.4805 131.682C50.296 131.961 50.0384 132.181 49.7076 132.34C49.3769 132.493 48.992 132.569 48.5531 132.569H45.4522ZM46.5972 128.705H48.3051C48.6358 128.705 48.8966 128.619 49.0874 128.447C49.2846 128.275 49.3832 128.046 49.3832 127.76C49.3832 127.474 49.2846 127.248 49.0874 127.083C48.8966 126.911 48.6358 126.825 48.3051 126.825H46.5972V128.705ZM46.5972 131.634H48.41C48.7726 131.634 49.062 131.542 49.2783 131.357C49.4945 131.166 49.6027 130.915 49.6027 130.603C49.6027 130.298 49.4945 130.053 49.2783 129.869C49.0684 129.678 48.7789 129.582 48.41 129.582H46.5972V131.634ZM54.884 132.674C54.4133 132.674 53.9712 132.588 53.5578 132.416C53.1507 132.238 52.7913 131.993 52.4796 131.682C52.1743 131.363 51.9357 130.998 51.764 130.584C51.5923 130.164 51.5064 129.713 51.5064 129.229C51.5064 128.746 51.5923 128.298 51.764 127.884C51.9357 127.464 52.1743 127.099 52.4796 126.787C52.7913 126.469 53.1507 126.224 53.5578 126.052C53.9712 125.874 54.4133 125.785 54.884 125.785C55.3547 125.785 55.7936 125.874 56.2007 126.052C56.6142 126.224 56.9735 126.469 57.2789 126.787C57.5905 127.099 57.8323 127.464 58.004 127.884C58.1757 128.298 58.2616 128.746 58.2616 129.229C58.2616 129.713 58.1757 130.164 58.004 130.584C57.8323 130.998 57.5905 131.363 57.2789 131.682C56.9735 131.993 56.6142 132.238 56.2007 132.416C55.7936 132.588 55.3547 132.674 54.884 132.674ZM54.884 131.643C55.1957 131.643 55.4851 131.583 55.7523 131.462C56.0194 131.341 56.2516 131.173 56.4488 130.956C56.6523 130.734 56.8082 130.476 56.9163 130.184C57.0308 129.891 57.088 129.573 57.088 129.229C57.088 128.886 57.0308 128.568 56.9163 128.275C56.8082 127.983 56.6523 127.728 56.4488 127.512C56.2516 127.289 56.0194 127.118 55.7523 126.997C55.4851 126.876 55.1957 126.815 54.884 126.815C54.5723 126.815 54.2829 126.876 54.0157 126.997C53.7486 127.118 53.5132 127.289 53.3097 127.512C53.1061 127.728 52.9471 127.983 52.8326 128.275C52.7245 128.568 52.6704 128.886 52.6704 129.229C52.6704 129.573 52.7245 129.891 52.8326 130.184C52.9471 130.476 53.1061 130.734 53.3097 130.956C53.5132 131.173 53.7486 131.341 54.0157 131.462C54.2829 131.583 54.5723 131.643 54.884 131.643ZM59.3639 132.569V125.89H60.4802L63.9628 130.746L63.9437 125.89H65.0218V132.569H64.0009L60.4229 127.579L60.442 132.569H59.3639ZM67.5764 131.577H68.9027C69.3034 131.577 69.666 131.475 69.9904 131.271C70.3148 131.061 70.5724 130.778 70.7632 130.422C70.9541 130.066 71.0495 129.668 71.0495 129.229C71.0495 128.784 70.9541 128.387 70.7632 128.037C70.5724 127.681 70.3148 127.401 69.9904 127.197C69.666 126.987 69.3034 126.882 68.9027 126.882H67.5764V131.577ZM66.4315 132.569V125.89H68.8741C69.3575 125.89 69.8027 125.976 70.2098 126.148C70.6169 126.319 70.97 126.558 71.2689 126.863C71.5742 127.162 71.8096 127.515 71.975 127.922C72.1404 128.323 72.223 128.759 72.223 129.229C72.223 129.7 72.1404 130.139 71.975 130.546C71.8096 130.947 71.5742 131.3 71.2689 131.605C70.97 131.904 70.6169 132.139 70.2098 132.311C69.8027 132.483 69.3575 132.569 68.8741 132.569H66.4315Z" fill="white"/>
<path d="M199.179 132.664C198.638 132.664 198.161 132.521 197.747 132.235C197.34 131.942 197.019 131.538 196.784 131.023C196.555 130.502 196.44 129.904 196.44 129.229C196.44 128.542 196.555 127.941 196.784 127.426C197.019 126.911 197.34 126.51 197.747 126.224C198.161 125.931 198.638 125.785 199.179 125.785C199.719 125.785 200.193 125.931 200.6 126.224C201.014 126.51 201.335 126.911 201.564 127.426C201.793 127.941 201.907 128.542 201.907 129.229C201.907 129.904 201.793 130.502 201.564 131.023C201.335 131.538 201.014 131.942 200.6 132.235C200.193 132.521 199.719 132.664 199.179 132.664ZM199.179 131.739C199.522 131.739 199.818 131.637 200.066 131.433C200.32 131.224 200.518 130.931 200.658 130.556C200.798 130.18 200.867 129.738 200.867 129.229C200.867 128.714 200.798 128.269 200.658 127.894C200.518 127.518 200.32 127.229 200.066 127.025C199.818 126.815 199.522 126.71 199.179 126.71C198.835 126.71 198.536 126.815 198.282 127.025C198.034 127.229 197.837 127.518 197.69 127.894C197.55 128.269 197.48 128.714 197.48 129.229C197.48 129.738 197.55 130.18 197.69 130.556C197.837 130.931 198.034 131.224 198.282 131.433C198.536 131.637 198.835 131.739 199.179 131.739ZM205.007 132.674C204.511 132.674 204.049 132.588 203.623 132.416C203.197 132.238 202.835 131.99 202.536 131.672L203.232 131.004C203.499 131.284 203.766 131.481 204.034 131.596C204.301 131.704 204.619 131.758 204.988 131.758C205.28 131.758 205.535 131.713 205.751 131.624C205.974 131.529 206.145 131.398 206.266 131.233C206.387 131.068 206.447 130.874 206.447 130.651C206.447 130.454 206.397 130.279 206.295 130.126C206.193 129.974 206.053 129.856 205.875 129.773C205.697 129.684 205.49 129.64 205.255 129.64H204.434V128.762H205.169C205.493 128.762 205.751 128.673 205.942 128.495C206.139 128.317 206.238 128.075 206.238 127.77C206.238 127.572 206.18 127.394 206.066 127.235C205.958 127.07 205.808 126.943 205.617 126.854C205.427 126.758 205.21 126.71 204.969 126.71C204.631 126.71 204.336 126.771 204.081 126.892C203.833 127.006 203.576 127.21 203.308 127.502L202.602 126.844C202.908 126.501 203.267 126.24 203.681 126.062C204.1 125.877 204.539 125.785 204.997 125.785C205.442 125.785 205.837 125.865 206.18 126.024C206.524 126.183 206.791 126.405 206.982 126.691C207.179 126.971 207.278 127.293 207.278 127.655C207.278 128.011 207.16 128.329 206.925 128.609C206.696 128.883 206.393 129.074 206.018 129.182C206.463 129.277 206.82 129.465 207.087 129.745C207.36 130.018 207.497 130.343 207.497 130.718C207.497 131.093 207.389 131.43 207.173 131.729C206.956 132.022 206.661 132.254 206.285 132.426C205.916 132.591 205.49 132.674 205.007 132.674ZM207.19 134.563L211.006 125.89H212.056L208.23 134.563H207.19ZM212.556 132.569V131.815L215.294 128.953C215.46 128.781 215.587 128.625 215.676 128.485C215.771 128.345 215.838 128.212 215.876 128.084C215.921 127.951 215.943 127.814 215.943 127.674C215.943 127.394 215.829 127.162 215.6 126.978C215.371 126.793 215.081 126.701 214.731 126.701C214.426 126.701 214.14 126.761 213.873 126.882C213.606 127.003 213.313 127.213 212.995 127.512L212.403 126.796C212.772 126.459 213.151 126.208 213.539 126.043C213.927 125.871 214.331 125.785 214.75 125.785C215.189 125.785 215.574 125.865 215.905 126.024C216.236 126.176 216.493 126.389 216.678 126.663C216.862 126.936 216.955 127.254 216.955 127.617C216.955 127.833 216.926 128.037 216.869 128.228C216.811 128.418 216.713 128.612 216.573 128.81C216.439 129.007 216.252 129.233 216.01 129.487L213.882 131.682L217.079 131.672V132.569H212.556ZM221.187 132.569V130.918H217.59V130.069L221.063 125.89H222.198V130.021H223.086V130.918H222.198V132.569H221.187ZM218.725 130.021H221.187V127.035L218.725 130.021Z" fill="white"/>
<path d="M19.564 27.3367H21.4429C22.0379 27.3367 22.5702 27.1919 23.0399 26.9022C23.5097 26.6125 23.8815 26.2211 24.1555 25.7279C24.4374 25.2269 24.5783 24.6632 24.5783 24.0369C24.5783 23.4106 24.4374 22.8508 24.1555 22.3576C23.8815 21.8566 23.5097 21.4612 23.0399 21.1716C22.5702 20.8819 22.0379 20.7371 21.4429 20.7371H19.564V27.3367ZM18.6598 28.147V19.9268H21.3842C21.987 19.9268 22.5389 20.0325 23.0399 20.2439C23.5488 20.4474 23.9833 20.7371 24.3434 21.1128C24.7114 21.4808 24.9932 21.9153 25.1889 22.4163C25.3925 22.9095 25.4943 23.4497 25.4943 24.0369C25.4943 24.624 25.3925 25.1681 25.1889 25.6692C24.9932 26.1624 24.7114 26.5969 24.3434 26.9727C23.9833 27.3406 23.5488 27.6303 23.0399 27.8417C22.5389 28.0452 21.987 28.147 21.3842 28.147H18.6598ZM29.6224 28.2644C29.0901 28.2644 28.6086 28.1352 28.178 27.8769C27.7474 27.6107 27.4069 27.2545 27.1564 26.8083C26.9058 26.3542 26.7806 25.8453 26.7806 25.2817C26.7806 24.718 26.898 24.213 27.1329 23.7668C27.3756 23.3206 27.7005 22.9683 28.1076 22.7099C28.5147 22.4516 28.9687 22.3224 29.4698 22.3224C29.9786 22.3224 30.4288 22.4516 30.8202 22.7099C31.2195 22.9604 31.5326 23.3049 31.7597 23.7433C31.9945 24.1739 32.112 24.6632 32.112 25.2112V25.4695H27.6143C27.6457 25.861 27.7514 26.2133 27.9314 26.5264C28.1193 26.8317 28.362 27.0744 28.6595 27.2545C28.9648 27.4267 29.2975 27.5128 29.6577 27.5128C29.9551 27.5128 30.2409 27.462 30.5149 27.3602C30.7967 27.2506 31.0355 27.1057 31.2312 26.9257L31.7714 27.5011C31.4426 27.7594 31.1021 27.9513 30.7498 28.0765C30.3975 28.2018 30.0217 28.2644 29.6224 28.2644ZM27.6378 24.8589H31.2665C31.2273 24.5144 31.1216 24.2091 30.9494 23.9429C30.785 23.6689 30.5736 23.4536 30.3153 23.2971C30.0647 23.1405 29.7829 23.0622 29.4698 23.0622C29.1566 23.0622 28.8709 23.1405 28.6125 23.2971C28.3542 23.4458 28.1389 23.6572 27.9666 23.9312C27.8022 24.1974 27.6926 24.5066 27.6378 24.8589ZM33.5756 28.147V19.7506L34.4329 19.5745V23.2031C34.6521 22.9291 34.9183 22.7177 35.2314 22.569C35.5446 22.4202 35.8929 22.3459 36.2766 22.3459C36.7776 22.3459 37.2238 22.479 37.6153 22.7451C38.0145 23.0035 38.3316 23.3558 38.5665 23.802C38.8013 24.2404 38.9188 24.7336 38.9188 25.2817C38.9188 25.8297 38.7974 26.3268 38.5547 26.773C38.3199 27.2193 37.9989 27.5755 37.5918 27.8417C37.1925 28.1 36.7384 28.2292 36.2296 28.2292C35.8695 28.2292 35.5328 28.1587 35.2197 28.0178C34.9143 27.8691 34.6482 27.6616 34.4211 27.3954V28.147H33.5756ZM36.0652 27.4894C36.4488 27.4894 36.7893 27.3954 37.0868 27.2075C37.3921 27.0118 37.6309 26.7495 37.8032 26.4207C37.9832 26.0841 38.0732 25.7083 38.0732 25.2934C38.0732 24.8706 37.9832 24.4949 37.8032 24.1661C37.6309 23.8372 37.3921 23.5789 37.0868 23.391C36.7893 23.1953 36.4488 23.0974 36.0652 23.0974C35.7285 23.0974 35.4154 23.1679 35.1257 23.3088C34.8439 23.4419 34.6129 23.6337 34.4329 23.8842V26.6908C34.6208 26.9413 34.8556 27.1371 35.1375 27.278C35.4271 27.4189 35.7364 27.4894 36.0652 27.4894ZM40.4102 28.147V22.4163H41.2675V28.147H40.4102ZM40.8447 20.9954C40.6725 20.9954 40.5237 20.9367 40.3985 20.8193C40.281 20.694 40.2223 20.5492 40.2223 20.3848C40.2223 20.2204 40.281 20.0794 40.3985 19.962C40.5237 19.8368 40.6725 19.7741 40.8447 19.7741C41.0169 19.7741 41.1618 19.8368 41.2792 19.962C41.4045 20.0794 41.4671 20.2204 41.4671 20.3848C41.4671 20.5492 41.4045 20.694 41.2792 20.8193C41.1618 20.9367 41.0169 20.9954 40.8447 20.9954ZM45.2094 28.2644C44.7162 28.2644 44.3404 28.147 44.0821 27.9121C43.8315 27.6694 43.7063 27.321 43.7063 26.867V23.1209H42.5202V22.4163H43.7063V20.8428L44.5635 20.6431V22.4163H46.2076V23.1209H44.5635V26.6439C44.5635 26.9492 44.6262 27.1684 44.7514 27.3015C44.8845 27.4346 45.0998 27.5011 45.3973 27.5011C45.546 27.5011 45.6791 27.4894 45.7966 27.4659C45.914 27.4424 46.051 27.4032 46.2076 27.3484V28.1117C46.051 28.1665 45.8866 28.2057 45.7143 28.2292C45.5421 28.2527 45.3738 28.2644 45.2094 28.2644Z" fill="white"/>
<circle cx="197.431" cy="27.89" r="10.2752" fill="#E33A24"/>
<circle cx="212.11" cy="27.89" r="10.2752" fill="#F8CB2E" fill-opacity="0.8"/>
<path d="M21.0495 104.848L21.0847 102.576L19.0943 103.809L18.4425 102.805L20.5563 101.572L18.4777 100.339L19.1471 99.3349L21.0671 100.55L21.0495 98.3484H22.2649L22.2297 100.533L24.1497 99.3349L24.819 100.339L22.7581 101.572L24.8719 102.805L24.1849 103.809L22.2297 102.594L22.2649 104.848H21.0495ZM29.1171 104.848L29.1524 102.576L27.1619 103.809L26.5102 102.805L28.6239 101.572L26.5454 100.339L27.2148 99.3349L29.1348 100.55L29.1171 98.3484H30.3326L30.2973 100.533L32.2173 99.3349L32.8867 100.339L30.8258 101.572L32.9395 102.805L32.2526 103.809L30.2973 102.594L30.3326 104.848H29.1171ZM37.1848 104.848L37.22 102.576L35.2296 103.809L34.5778 102.805L36.6916 101.572L34.6131 100.339L35.2824 99.3349L37.2024 100.55L37.1848 98.3484H38.4002L38.365 100.533L40.285 99.3349L40.9543 100.339L38.8934 101.572L41.0072 102.805L40.3202 103.809L38.365 102.594L38.4002 104.848H37.1848ZM45.2525 104.848L45.2877 102.576L43.2972 103.809L42.6455 102.805L44.7593 101.572L42.6807 100.339L43.3501 99.3349L45.2701 100.55L45.2525 98.3484H46.4679L46.4327 100.533L48.3527 99.3349L49.022 100.339L46.9611 101.572L49.0749 102.805L48.3879 103.809L46.4327 102.594L46.4679 104.848H45.2525ZM57.0013 104.848L57.0366 102.576L55.0461 103.809L54.3943 102.805L56.5081 101.572L54.4296 100.339L55.0989 99.3349L57.0189 100.55L57.0013 98.3484H58.2167L58.1815 100.533L60.1015 99.3349L60.7709 100.339L58.7099 101.572L60.8237 102.805L60.1367 103.809L58.1815 102.594L58.2167 104.848H57.0013ZM65.069 104.848L65.1042 102.576L63.1138 103.809L62.462 102.805L64.5758 101.572L62.4972 100.339L63.1666 99.3349L65.0866 100.55L65.069 98.3484H66.2844L66.2492 100.533L68.1692 99.3349L68.8385 100.339L66.7776 101.572L68.8914 102.805L68.2044 103.809L66.2492 102.594L66.2844 104.848H65.069ZM73.1366 104.848L73.1719 102.576L71.1814 103.809L70.5297 102.805L72.6434 101.572L70.5649 100.339L71.2343 99.3349L73.1543 100.55L73.1366 98.3484H74.3521L74.3168 100.533L76.2368 99.3349L76.9062 100.339L74.8453 101.572L76.959 102.805L76.2721 103.809L74.3168 102.594L74.3521 104.848H73.1366ZM81.2043 104.848L81.2395 102.576L79.2491 103.809L78.5973 102.805L80.7111 101.572L78.6326 100.339L79.3019 99.3349L81.2219 100.55L81.2043 98.3484H82.4197L82.3845 100.533L84.3045 99.3349L84.9738 100.339L82.9129 101.572L85.0267 102.805L84.3397 103.809L82.3845 102.594L82.4197 104.848H81.2043ZM92.9532 104.848L92.9884 102.576L90.9979 103.809L90.3462 102.805L92.4599 101.572L90.3814 100.339L91.0508 99.3349L92.9708 100.55L92.9532 98.3484H94.1686L94.1333 100.533L96.0533 99.3349L96.7227 100.339L94.6618 101.572L96.7755 102.805L96.0886 103.809L94.1333 102.594L94.1686 104.848H92.9532ZM101.021 104.848L101.056 102.576L99.0656 103.809L98.4138 102.805L100.528 101.572L98.4491 100.339L99.1184 99.3349L101.038 100.55L101.021 98.3484H102.236L102.201 100.533L104.121 99.3349L104.79 100.339L102.729 101.572L104.843 102.805L104.156 103.809L102.201 102.594L102.236 104.848H101.021ZM109.088 104.848L109.124 102.576L107.133 103.809L106.482 102.805L108.595 101.572L106.517 100.339L107.186 99.3349L109.106 100.55L109.088 98.3484H110.304L110.269 100.533L112.189 99.3349L112.858 100.339L110.797 101.572L112.911 102.805L112.224 103.809L110.269 102.594L110.304 104.848H109.088ZM117.156 104.848L117.191 102.576L115.201 103.809L114.549 102.805L116.663 101.572L114.584 100.339L115.254 99.3349L117.174 100.55L117.156 98.3484H118.372L118.336 100.533L120.256 99.3349L120.926 100.339L118.865 101.572L120.979 102.805L120.292 103.809L118.336 102.594L118.372 104.848H117.156ZM131.389 110.872C130.355 110.872 129.451 110.608 128.676 110.08C127.901 109.54 127.29 108.794 126.844 107.843C126.41 106.88 126.192 105.77 126.192 104.514C126.192 103.257 126.41 102.153 126.844 101.202C127.29 100.239 127.901 99.4934 128.676 98.9649C129.451 98.4248 130.355 98.1547 131.389 98.1547C132.41 98.1547 133.309 98.4248 134.084 98.9649C134.859 99.4934 135.464 100.239 135.898 101.202C136.344 102.153 136.567 103.257 136.567 104.514C136.567 105.77 136.344 106.88 135.898 107.843C135.464 108.794 134.859 109.54 134.084 110.08C133.309 110.608 132.41 110.872 131.389 110.872ZM131.389 109.34C132.093 109.34 132.704 109.146 133.221 108.759C133.737 108.359 134.137 107.796 134.418 107.068C134.7 106.34 134.841 105.488 134.841 104.514C134.841 103.527 134.7 102.676 134.418 101.959C134.137 101.231 133.737 100.674 133.221 100.286C132.704 99.8868 132.093 99.6872 131.389 99.6872C130.684 99.6872 130.068 99.8868 129.539 100.286C129.022 100.674 128.623 101.231 128.341 101.959C128.059 102.676 127.919 103.527 127.919 104.514C127.919 105.488 128.059 106.34 128.341 107.068C128.623 107.796 129.022 108.359 129.539 108.759C130.068 109.146 130.684 109.34 131.389 109.34ZM142.396 110.872C141.515 110.872 140.687 110.72 139.912 110.414C139.149 110.097 138.486 109.645 137.922 109.058L139.067 107.966C139.56 108.483 140.059 108.853 140.564 109.076C141.081 109.287 141.686 109.393 142.378 109.393C142.93 109.393 143.418 109.299 143.84 109.111C144.275 108.923 144.61 108.665 144.844 108.336C145.079 108.007 145.197 107.625 145.197 107.191C145.197 106.792 145.091 106.439 144.88 106.134C144.68 105.817 144.404 105.576 144.052 105.412C143.711 105.236 143.306 105.148 142.836 105.148H141.339V103.721H142.713C143.335 103.721 143.835 103.539 144.21 103.175C144.586 102.811 144.774 102.335 144.774 101.748C144.774 101.361 144.668 101.008 144.457 100.691C144.246 100.374 143.952 100.128 143.576 99.9514C143.212 99.7635 142.795 99.6695 142.326 99.6695C141.703 99.6695 141.151 99.7811 140.67 100.004C140.2 100.216 139.713 100.591 139.208 101.132L138.063 100.039C138.627 99.4288 139.278 98.9649 140.018 98.6479C140.758 98.3191 141.539 98.1547 142.361 98.1547C143.159 98.1547 143.864 98.3015 144.475 98.595C145.097 98.8886 145.584 99.2996 145.937 99.8281C146.301 100.345 146.483 100.932 146.483 101.59C146.483 102.235 146.265 102.817 145.831 103.333C145.408 103.838 144.85 104.191 144.158 104.39C144.991 104.566 145.655 104.919 146.148 105.447C146.641 105.964 146.888 106.574 146.888 107.279C146.888 107.972 146.694 108.588 146.307 109.129C145.931 109.669 145.402 110.097 144.721 110.414C144.04 110.72 143.265 110.872 142.396 110.872ZM148.524 110.679V109.446L153.526 104.126C153.867 103.774 154.131 103.457 154.319 103.175C154.507 102.893 154.636 102.629 154.706 102.382C154.789 102.124 154.83 101.854 154.83 101.572C154.83 101.02 154.607 100.562 154.16 100.198C153.714 99.8339 153.15 99.6519 152.469 99.6519C151.906 99.6519 151.377 99.7635 150.884 99.9866C150.391 100.21 149.845 100.597 149.246 101.149L148.295 99.9866C148.952 99.376 149.627 98.918 150.32 98.6127C151.025 98.3073 151.753 98.1547 152.505 98.1547C153.291 98.1547 153.984 98.2956 154.583 98.5774C155.182 98.8593 155.646 99.2527 155.975 99.7576C156.315 100.251 156.485 100.82 156.485 101.466C156.485 101.877 156.433 102.259 156.327 102.611C156.221 102.952 156.039 103.316 155.781 103.703C155.523 104.079 155.158 104.514 154.689 105.007L150.673 109.234L156.732 109.217V110.679H148.524ZM162.487 98.1547C163.473 98.1547 164.342 98.413 165.094 98.9297C165.845 99.4347 166.432 100.133 166.855 101.026C167.278 101.918 167.489 102.958 167.489 104.144C167.489 105.494 167.254 106.674 166.785 107.684C166.315 108.682 165.651 109.463 164.794 110.027C163.949 110.579 162.956 110.855 161.817 110.855C161.265 110.855 160.707 110.767 160.144 110.591C159.58 110.414 159.093 110.18 158.682 109.886L159.58 108.618C159.944 108.853 160.326 109.035 160.725 109.164C161.124 109.281 161.535 109.34 161.958 109.34C162.757 109.34 163.438 109.134 164.001 108.723C164.577 108.312 165.017 107.725 165.323 106.962C165.628 106.187 165.786 105.271 165.798 104.214C165.364 104.79 164.841 105.242 164.23 105.57C163.62 105.888 162.986 106.046 162.328 106.046C161.518 106.046 160.801 105.882 160.179 105.553C159.557 105.212 159.069 104.76 158.717 104.197C158.365 103.621 158.189 102.963 158.189 102.224C158.189 101.437 158.376 100.738 158.752 100.128C159.128 99.5169 159.639 99.0354 160.285 98.6831C160.931 98.3308 161.665 98.1547 162.487 98.1547ZM162.575 104.69C163.185 104.69 163.761 104.549 164.301 104.267C164.853 103.973 165.328 103.58 165.728 103.087C165.634 102.382 165.44 101.772 165.146 101.255C164.865 100.738 164.5 100.339 164.054 100.057C163.608 99.7635 163.103 99.6167 162.539 99.6167C162.034 99.6167 161.576 99.7283 161.165 99.9514C160.766 100.174 160.449 100.48 160.214 100.867C159.991 101.255 159.88 101.695 159.88 102.188C159.88 102.67 159.991 103.104 160.214 103.492C160.449 103.868 160.772 104.161 161.183 104.373C161.594 104.584 162.058 104.69 162.575 104.69Z" fill="#FDFDFD"/>
</g>
<defs>
<clipPath id="clip0_1633_13332">
<rect width="240" height="152.536" rx="11.7431" fill="white"/>
</clipPath>
</defs>
</svg>
