<svg width="158" height="118" viewBox="0 0 158 118" fill="none" xmlns="http://www.w3.org/2000/svg">
<path d="M98.1751 44.5335C99.1867 41.2054 97.6592 36.6937 89.6273 34.4784C77.4377 31.1098 68.6673 43.7343 67.6152 45.3326C68.7381 43.4915 79.3698 26.8511 91.6909 30.1589C101.432 32.8194 100.886 40.3354 98.1751 44.5335Z" fill="#455A64"/>
<path d="M98.1752 44.5336C97.4408 45.7926 96.3146 46.7767 94.9685 47.3357C90.6794 48.6507 80.9479 49.4701 68.3538 45.7475L67.5142 45.4946C67.5443 45.4385 67.578 45.3844 67.6153 45.3328L67.676 45.2316H67.7772C81.0289 47.1536 90.2545 45.7374 94.0783 44.3718C94.9139 43.9602 95.6196 43.3258 96.1176 42.5386C96.6156 41.7515 96.8866 40.8421 96.9006 39.9107C96.9321 39.414 96.9083 38.9152 96.8298 38.4237C97.563 39.239 98.0724 40.2304 98.3082 41.3012C98.544 42.3721 98.4982 43.4858 98.1752 44.5336Z" fill="#37474F"/>
<path d="M90.2445 27.1444C88.6057 23.2801 84.175 19.6688 76.3251 22.0359C64.4087 25.627 66.7252 43.1171 67.059 45.3021C66.6038 42.844 62.8307 20.3162 74.8179 16.624C84.3065 13.6904 89.3139 21.4492 90.2445 27.1444Z" fill="#455A64"/>
<path d="M90.2444 27.1444C90.613 28.6838 90.4489 30.3027 89.779 31.7369C87.4018 35.4797 80.4219 41.8527 67.9289 45.2819L67.0994 45.5045C67.0951 45.4337 67.0951 45.3628 67.0994 45.2921C67.0994 45.2921 67.0994 45.2111 67.0994 45.1606H67.1904C78.8843 39.5362 85.0347 32.9002 86.9972 29.4002C87.7558 28.0244 87.3714 25.5562 85.9856 23.3307C85.6553 22.8195 85.2758 22.3418 84.8526 21.9044C86.063 22.3607 87.1664 23.0615 88.0941 23.963C89.0217 24.8645 89.7537 25.9475 90.2444 27.1444Z" fill="#37474F"/>
<path d="M35.8921 44.5335C34.8805 41.2054 36.408 36.6937 44.44 34.4784C56.6295 31.1098 65.3999 43.7343 66.452 45.3326C65.3291 43.4915 54.6974 26.8511 42.3763 30.1589C32.6449 32.8194 33.1912 40.3354 35.8921 44.5335Z" fill="#455A64"/>
<path d="M35.892 44.5336C36.6241 45.7946 37.7511 46.7793 39.0988 47.3357C43.3879 48.6507 53.1193 49.4701 65.7135 45.7475L66.5531 45.4946L66.4519 45.3328L66.3912 45.2316H66.2901C53.0383 47.1536 43.8127 45.7374 39.9889 44.3718C39.1533 43.9602 38.4476 43.3258 37.9496 42.5386C37.4516 41.7515 37.1807 40.8421 37.1666 39.9107C37.1352 39.414 37.1589 38.9152 37.2374 38.4237C36.5042 39.239 35.9948 40.2304 35.759 41.3012C35.5232 42.3721 35.569 43.4858 35.892 44.5336Z" fill="#37474F"/>
<path d="M43.0234 27.1444C44.6622 23.2801 49.0929 19.6688 56.9428 22.0359C68.8592 25.627 66.5427 43.1171 66.2089 45.3021C66.6641 42.844 70.4373 20.3162 58.4501 16.624C48.9614 13.6904 43.9844 21.4492 43.0234 27.1444Z" fill="#455A64"/>
<path d="M43.0235 27.1444C42.6549 28.6838 42.8189 30.3027 43.4888 31.7369C45.8661 35.4797 52.8358 41.8527 65.339 45.2819L66.1685 45.5045C66.1727 45.4337 66.1727 45.3628 66.1685 45.2921C66.1644 45.2483 66.1644 45.2043 66.1685 45.1606H66.0775C54.3836 39.5362 48.2332 32.9002 46.2707 29.4002C45.5019 28.0244 45.8863 25.5562 47.2823 23.3307C47.6195 22.8218 48.0021 22.3444 48.4254 21.9044C47.2131 22.3596 46.1077 23.0598 45.1783 23.9614C44.2488 24.863 43.5153 25.9465 43.0235 27.1444Z" fill="#37474F"/>
<path d="M92.8136 117.165H33.4743L30.9453 44.999L95.5449 46.3343L92.8136 117.165Z" fill="#06AED5"/>
<path opacity="0.1" d="M92.8136 117.165H33.4743L30.9453 44.999L95.5449 46.3343L92.8136 117.165Z" fill="#00050D"/>
<path d="M114.542 117.165H92.8135L93.7138 46.3342L117.203 48.2057L114.542 117.165Z" fill="#06AED5"/>
<g opacity="0.2">
<path d="M114.542 117.165H92.8135L93.7138 46.3342L117.203 48.2057L114.542 117.165Z" fill="#00050D"/>
</g>
<path d="M27.405 44.928L28.9123 60.5266H93.7142V41.7416L27.405 44.928Z" fill="#06AED5"/>
<path opacity="0.2" d="M27.405 44.928L28.9123 60.5266H93.7142V41.7416L27.405 44.928Z" fill="#00050D"/>
<path d="M119.236 60.5267H93.7139V41.7417L121.704 45.0495L119.236 60.5267Z" fill="#06AED5"/>
<path opacity="0.3" d="M119.236 60.5267H93.7139V41.7417L121.704 45.0495L119.236 60.5267Z" fill="#00050D"/>
<path d="M111.71 43.866L106.935 117.043H101.483L104.508 43.0162L111.71 43.866Z" fill="#37474F"/>
<path d="M69.3145 42.9961V117.165H54.9804L53.3618 43.7244L69.3145 42.9961Z" fill="#455A64"/>
<path d="M58.0459 82.5991C57.9875 83.8117 57.6107 84.9875 56.9534 86.0082C56.9534 85.7755 56.8724 85.5428 56.8117 85.3C56.7585 85.0535 56.6909 84.8104 56.6094 84.5717C56.024 82.8881 55.1208 81.3324 53.949 79.9893C53.8175 79.8375 53.6961 79.6858 53.5545 79.534L53.4533 79.4127L53.2611 79.2002C42.5181 65.5945 32.291 87.6469 32.0786 88.1527C32.0786 88.1527 31.4919 66.161 43.206 65.544C52.4013 65.0786 58.582 75.8014 58.0459 82.5991Z" fill="#06AED5"/>
<path d="M56.9535 86.0082C56.6869 86.3927 56.3628 86.7339 55.9925 87.0198C50.3883 91.3089 33.1914 88.3551 32.1191 88.173C48.3044 89.7308 52.7251 83.8434 53.504 79.4229L53.6052 79.5442C53.7468 79.696 53.8681 79.8477 53.9997 79.9995C55.1643 81.3478 56.0667 82.902 56.6601 84.5819C56.741 84.8247 56.8018 85.0776 56.8624 85.3102C56.9231 85.5429 56.913 85.7756 56.9535 86.0082Z" fill="#06AED5"/>
<path opacity="0.2" d="M56.9535 86.0082C56.6869 86.3927 56.3628 86.7339 55.9925 87.0198C50.3883 91.3089 33.1914 88.3551 32.1191 88.173C48.3044 89.7308 52.7251 83.8434 53.504 79.4229L53.6052 79.5442C53.7468 79.696 53.8681 79.8477 53.9997 79.9995C55.1643 81.3478 56.0667 82.902 56.6601 84.5819C56.741 84.8247 56.8018 85.0776 56.8624 85.3102C56.9231 85.5429 56.913 85.7756 56.9535 86.0082Z" fill="#00050D"/>
<path d="M5.68643 85.0978C5.85773 86.3001 6.34659 87.435 7.10263 88.3854C7.11119 88.1481 7.13481 87.9116 7.17342 87.6773C7.17342 87.4244 7.25435 87.1715 7.30493 86.9186C7.72887 85.1868 8.4809 83.5522 9.5203 82.1035L9.86423 81.618L9.95527 81.4865L10.1273 81.2639C19.5248 66.6871 31.8055 87.6672 32.0685 88.1528C32.0685 88.1528 30.5612 66.2016 18.8269 66.7073C9.6417 67.1221 4.53322 78.391 5.68643 85.0978Z" fill="#06AED5"/>
<path d="M7.10266 88.3853C7.38933 88.7435 7.73072 89.0541 8.11424 89.3058C14.0927 93.0386 30.9355 88.4662 31.9775 88.183H32.028C16.0855 91.2683 11.1085 85.8361 9.91486 81.5066L9.82382 81.6381L9.47989 82.1237C8.44624 83.5757 7.69474 85.2091 7.26452 86.9388C7.21394 87.1916 7.16336 87.4445 7.13301 87.6974C7.10878 87.9259 7.09864 88.1556 7.10266 88.3853Z" fill="#06AED5"/>
<path opacity="0.2" d="M7.10266 88.3853C7.38933 88.7435 7.73072 89.0541 8.11424 89.3058C14.0927 93.0386 30.9355 88.4662 31.9775 88.183H32.028C16.0855 91.2683 11.1085 85.8361 9.91486 81.5066L9.82382 81.6381L9.47989 82.1237C8.44624 83.5757 7.69474 85.2091 7.26452 86.9388C7.21394 87.1916 7.16336 87.4445 7.13301 87.6974C7.10878 87.9259 7.09864 88.1556 7.10266 88.3853Z" fill="#00050D"/>
<path d="M63.5283 117.165H1.00244L6.16148 90.7627L57.2767 92.9477L63.5283 117.165Z" fill="#455A64"/>
<path d="M77.9537 117.165H58.5415L55.8203 92.9476L74.484 94.5763L77.9537 117.165Z" fill="#37474F"/>
<path d="M0.152832 90.7627V104.54L55.8202 102.831V87.0704L0.152832 90.7627Z" fill="#37474F"/>
<path d="M76.76 104.54L55.8203 102.831V87.0704L77.9537 90.7627L76.76 104.54Z" fill="#01232B"/>
<path d="M36.8532 117.165H23.7734L22.4482 89.2856L37.9052 88.2639L36.8532 117.165Z" fill="#06AED5"/>
<path d="M66.553 117.165H71.0039L70.6094 89.5386L64.3882 88.5068L66.553 117.165Z" fill="#06AED5"/>
<path d="M109.09 14.1457C109.225 14.9668 109.574 15.7379 110.101 16.3812C110.091 16.2162 110.091 16.0506 110.101 15.8856C110.101 15.7136 110.152 15.5416 110.182 15.3596C110.444 14.1621 110.931 13.0256 111.619 12.0112L111.852 11.6673L111.912 11.5762C111.955 11.5264 111.992 11.4722 112.024 11.4144C118.235 1.2177 127.066 15.4607 127.258 15.7743C127.258 15.7743 125.923 0.691689 117.83 1.2784C111.497 1.68303 108.159 9.53287 109.09 14.1457Z" fill="#455A64"/>
<path d="M110.132 16.3812C110.342 16.6236 110.592 16.8288 110.87 16.9881C115.058 19.4564 126.57 15.9765 127.288 15.7945C116.363 18.202 112.843 14.5502 111.943 11.5863L111.882 11.6773L111.649 12.0213C110.966 13.0379 110.478 14.1736 110.213 15.3696C110.213 15.5517 110.152 15.7237 110.132 15.8956C110.122 16.0573 110.122 16.2195 110.132 16.3812Z" fill="#01232B"/>
<path d="M145.143 11.5054C145.124 12.3392 144.883 13.1529 144.445 13.8624C144.416 13.702 144.379 13.5433 144.334 13.3869C144.292 13.2157 144.242 13.0468 144.182 12.8812C143.747 11.7345 143.098 10.6808 142.27 9.77561L141.997 9.46203L141.916 9.39121L141.785 9.24961C134.147 0.0644921 127.491 15.4303 127.349 15.7844C127.349 15.7844 126.56 0.610749 134.623 0.0240344C140.915 -0.471638 145.355 6.81169 145.143 11.5054Z" fill="#455A64"/>
<path d="M144.415 13.8624C144.237 14.1339 144.019 14.3761 143.767 14.5806C139.994 17.6154 128.098 15.8957 127.359 15.7945C138.487 16.5836 141.471 12.4563 141.926 9.40137L142.007 9.47218L142.28 9.78577C143.108 10.6909 143.757 11.7447 144.192 12.8913C144.252 13.057 144.303 13.2259 144.344 13.3971C144.375 13.5509 144.399 13.7062 144.415 13.8624Z" fill="#01232B"/>
<path d="M148.188 117.165H105.671L107.229 18.3842L143.939 17.0792L148.188 117.165Z" fill="#06AED5"/>
<path opacity="0.6" d="M148.188 117.165H105.671L107.229 18.3842L143.939 17.0792L148.188 117.165Z" fill="#F5FFFF"/>
<path d="M156.887 117.165H144.809L142.958 17.0792L155.411 19.4059L156.887 117.165Z" fill="#06AED5"/>
<path d="M105.094 17.1905V27.6906L142.958 26.3958V14.3682L105.094 17.1905Z" fill="#06AED5"/>
<path opacity="0.4" d="M105.094 17.1905V27.6906L142.958 26.3958V14.3682L105.094 17.1905Z" fill="#F5FFFF"/>
<path d="M157.191 27.6906L142.958 26.3958V14.3682L158 17.1905L157.191 27.6906Z" fill="#06AED5"/>
<path opacity="0.1" d="M157.191 27.6906L142.958 26.3958V14.3682L158 17.1905L157.191 27.6906Z" fill="#00050D"/>
<path d="M117.294 16.28L117.668 117.165H127.703L127.865 15.5011L117.294 16.28Z" fill="#455A64"/>
<path d="M148.946 15.5011L152.73 16.1991V117.165H149.573L148.946 15.5011Z" fill="#455A64"/>
<path d="M120.794 67.4357C121.442 65.2406 120.45 62.2666 115.16 60.8099C107.118 58.5946 101.342 66.8794 100.644 67.9618C101.392 66.758 108.392 55.8228 116.515 57.9775C122.939 59.7174 122.575 64.6741 120.794 67.4357Z" fill="#06AED5"/>
<path d="M120.794 67.4358C120.313 68.2693 119.57 68.9202 118.68 69.287C115.858 70.1569 109.434 70.6931 101.129 68.2754L100.633 68.0427L100.694 67.9315V67.8708H100.765C109.495 69.1352 115.584 68.2046 118.073 67.3043C118.625 67.036 119.091 66.6196 119.42 66.1015C119.748 65.5835 119.927 64.9842 119.934 64.3707C119.96 64.0327 119.943 63.6929 119.884 63.3591C120.382 63.8979 120.728 64.5588 120.888 65.2748C121.048 65.9908 121.016 66.7364 120.794 67.4358Z" fill="#06AED5"/>
<path opacity="0.2" d="M120.794 67.4358C120.313 68.2693 119.57 68.9202 118.68 69.287C115.858 70.1569 109.434 70.6931 101.129 68.2754L100.633 68.0427L100.694 67.9315V67.8708H100.765C109.495 69.1352 115.584 68.2046 118.073 67.3043C118.625 67.036 119.091 66.6196 119.42 66.1015C119.748 65.5835 119.927 64.9842 119.934 64.3707C119.96 64.0327 119.943 63.6929 119.884 63.3591C120.382 63.8979 120.728 64.5588 120.888 65.2748C121.048 65.9908 121.016 66.7364 120.794 67.4358Z" fill="#00050D"/>
<path d="M115.564 55.9745C114.482 53.4355 111.518 51.0481 106.389 52.606C98.529 54.973 100.056 66.505 100.319 67.9314C100.026 66.3128 97.5275 51.4629 105.438 49.0351C111.649 47.103 114.957 52.2216 115.564 55.9745Z" fill="#06AED5"/>
<path d="M115.564 55.9746C115.804 56.9917 115.698 58.0599 115.261 59.0093C113.693 61.4775 109.09 65.6452 100.856 67.9314L100.31 68.0831V67.9314C100.31 67.9314 100.31 67.8808 100.31 67.8505C100.31 67.8201 100.31 67.8505 100.37 67.8505C108.079 64.1481 112.135 59.7579 113.42 57.4616C113.925 56.5613 113.673 54.9326 112.742 53.4962C112.521 53.1606 112.271 52.8457 111.993 52.5554C112.79 52.8521 113.518 53.3084 114.132 53.8964C114.746 54.4843 115.233 55.1915 115.564 55.9746Z" fill="#06AED5"/>
<path opacity="0.2" d="M115.564 55.9746C115.804 56.9917 115.698 58.0599 115.261 59.0093C113.693 61.4775 109.09 65.6452 100.856 67.9314L100.31 68.0831V67.9314C100.31 67.9314 100.31 67.8808 100.31 67.8505C100.31 67.8201 100.31 67.8505 100.37 67.8505C108.079 64.1481 112.135 59.7579 113.42 57.4616C113.925 56.5613 113.673 54.9326 112.742 53.4962C112.521 53.1606 112.271 52.8457 111.993 52.5554C112.79 52.8521 113.518 53.3084 114.132 53.8964C114.746 54.4843 115.233 55.1915 115.564 55.9746Z" fill="#00050D"/>
<path d="M79.7442 67.4357C79.0866 65.2406 80.0881 62.2666 85.3787 60.8099C93.4106 58.5946 99.1969 66.8794 99.8847 67.9618C99.1463 66.758 92.136 55.8228 84.0231 57.9775C77.5996 59.7174 77.9537 64.6741 79.7442 67.4357Z" fill="#06AED5"/>
<path d="M79.7439 67.4358C80.2226 68.2712 80.9667 68.9228 81.8581 69.287C84.6804 70.1569 91.0938 70.6931 99.3989 68.2754L99.9552 68.1135L99.8844 68.0022V67.9416H99.8237C91.0837 69.206 85.0041 68.2754 82.5054 67.3751C81.9565 67.1031 81.4928 66.6858 81.1646 66.1686C80.8364 65.6513 80.6564 65.054 80.6441 64.4415C80.6234 64.1035 80.6404 63.7642 80.6947 63.4299C80.2038 63.9587 79.8582 64.6056 79.6916 65.3076C79.5249 66.0096 79.5429 66.7428 79.7439 67.4358Z" fill="#06AED5"/>
<path opacity="0.2" d="M79.7439 67.4358C80.2226 68.2712 80.9667 68.9228 81.8581 69.287C84.6804 70.1569 91.0938 70.6931 99.3989 68.2754L99.9552 68.1135L99.8844 68.0022V67.9416H99.8237C91.0837 69.206 85.0041 68.2754 82.5054 67.3751C81.9565 67.1031 81.4928 66.6858 81.1646 66.1686C80.8364 65.6513 80.6564 65.054 80.6441 64.4415C80.6234 64.1035 80.6404 63.7642 80.6947 63.4299C80.2038 63.9587 79.8582 64.6056 79.6916 65.3076C79.5249 66.0096 79.5429 66.7428 79.7439 67.4358Z" fill="#00050D"/>
<path d="M84.4478 55.9745C85.5301 53.4355 88.4941 51.0481 93.6228 52.606C101.483 54.973 99.9553 66.505 99.6923 67.9314C99.9857 66.3128 102.474 51.4629 94.5737 49.0351C88.3525 47.103 85.0446 52.2216 84.4478 55.9745Z" fill="#06AED5"/>
<path d="M84.4477 55.9746C84.2075 56.9917 84.3143 58.0599 84.7512 59.0093C86.3191 61.4775 90.9218 65.6452 99.1561 67.9314L99.7024 68.0831V67.9314C99.7024 67.9314 99.7024 67.8808 99.7024 67.8505C99.7024 67.8201 99.7024 67.8505 99.6417 67.8505C91.9334 64.1481 87.877 59.7579 86.5923 57.4616C86.0865 56.5613 86.3394 54.9326 87.27 53.4962C87.4874 53.1583 87.7382 52.8431 88.0186 52.5554C87.2201 52.8489 86.4908 53.3041 85.8764 53.8924C85.262 54.4807 84.7756 55.1896 84.4477 55.9746Z" fill="#06AED5"/>
<path opacity="0.2" d="M84.4477 55.9746C84.2075 56.9917 84.3143 58.0599 84.7512 59.0093C86.3191 61.4775 90.9218 65.6452 99.1561 67.9314L99.7024 68.0831V67.9314C99.7024 67.9314 99.7024 67.8808 99.7024 67.8505C99.7024 67.8201 99.7024 67.8505 99.6417 67.8505C91.9334 64.1481 87.877 59.7579 86.5923 57.4616C86.0865 56.5613 86.3394 54.9326 87.27 53.4962C87.4874 53.1583 87.7382 52.8431 88.0186 52.5554C87.2201 52.8489 86.4908 53.3041 85.8764 53.8924C85.262 54.4807 84.7756 55.1896 84.4477 55.9746Z" fill="#00050D"/>
<path d="M119.975 117.165H77.4175L75.6675 70.3289L121.846 71.8968L119.975 117.165Z" fill="#37474F"/>
<path d="M134.895 117.165H119.975L120.592 71.8967L136.726 73.6872L134.895 117.165Z" fill="#455A64"/>
<path d="M72.208 69.56L73.2398 84.4201H120.592V66.5253L72.208 69.56Z" fill="#01232B"/>
<path d="M137.566 83.975L120.592 84.4201V66.5253L139.134 70.3288L137.566 83.975Z" fill="#37474F"/>
<path d="M132.781 69.0341L129.676 117.165H125.923L128.007 68.0529L132.781 69.0341Z" fill="#06AED5"/>
<path opacity="0.1" d="M132.781 69.0341L129.676 117.165H125.923L128.007 68.0529L132.781 69.0341Z" fill="#00050D"/>
<path d="M102.039 67.719V117.165H92.1863L91.0635 68.417L102.039 67.719Z" fill="#06AED5"/>
</svg>
