<svg width="32" height="41" viewBox="0 0 32 41" fill="none" xmlns="http://www.w3.org/2000/svg">
<path d="M14 27H18V22H23V18H18V13H14V18H9V22H14V27ZM16 40.95C11.3333 39.7833 7.5 37.075 4.5 32.825C1.5 28.575 0 23.9166 0 18.85V6.94995L16 0.949951L32 6.94995V18.85C32 23.9166 30.5 28.575 27.5 32.825C24.5 37.075 20.6667 39.7833 16 40.95ZM16 37.8499C19.8333 36.5833 22.9583 34.1916 25.375 30.6749C27.7917 27.1583 29 23.2166 29 18.85V9.04995L16 4.14995L3 9.04995V18.85C3 23.2166 4.20833 27.1583 6.625 30.6749C9.04167 34.1916 12.1667 36.5833 16 37.8499Z" fill="#1C1B1F"/>
</svg>
