<svg width="20" height="22" viewBox="0 0 20 22" fill="none" xmlns="http://www.w3.org/2000/svg">
<path fill-rule="evenodd" clip-rule="evenodd" d="M9.469 0.719364C9.53867 0.649519 9.62143 0.594105 9.71255 0.556295C9.80367 0.518486 9.90135 0.499023 10 0.499023C10.0987 0.499023 10.1963 0.518486 10.2875 0.556295C10.3786 0.594105 10.4613 0.649519 10.531 0.719364L19.531 9.71936C19.6006 9.78914 19.6558 9.87195 19.6933 9.96307C19.7309 10.0542 19.7502 10.1518 19.75 10.2504V20.7504C19.75 20.9493 19.671 21.14 19.5303 21.2807C19.3897 21.4213 19.1989 21.5004 19 21.5004H12.25C12.0511 21.5004 11.8603 21.4213 11.7197 21.2807C11.579 21.14 11.5 20.9493 11.5 20.7504V14.7504H8.5V20.7504C8.5 20.9493 8.42098 21.14 8.28033 21.2807C8.13968 21.4213 7.94891 21.5004 7.75 21.5004H1C0.801089 21.5004 0.610323 21.4213 0.469671 21.2807C0.329019 21.14 0.250001 20.9493 0.250001 20.7504V10.2504C0.249825 10.1518 0.269076 10.0542 0.306654 9.96307C0.344231 9.87195 0.399399 9.78914 0.469001 9.71936L9.469 0.719364ZM1.75 10.5609V20.0004H7V14.0004C7 13.8015 7.07902 13.6107 7.21967 13.47C7.36032 13.3294 7.55109 13.2504 7.75 13.2504H12.25C12.4489 13.2504 12.6397 13.3294 12.7803 13.47C12.921 13.6107 13 13.8015 13 14.0004V20.0004H18.25V10.5609L10 2.31086L1.75 10.5609Z" fill="#818182"/>
</svg>
