<svg width="25" height="24" viewBox="0 0 25 24" fill="none" xmlns="http://www.w3.org/2000/svg">
<g clip-path="url(#clip0_3007_17504)">
<path fill-rule="evenodd" clip-rule="evenodd" d="M15.8576 15.5234C15.9528 15.4281 16.0659 15.3524 16.1904 15.3008C16.3149 15.2492 16.4483 15.2227 16.5831 15.2227C16.7179 15.2227 16.8513 15.2492 16.9758 15.3008C17.1003 15.3524 17.2134 15.4281 17.3086 15.5234L21.2567 19.4715C21.4491 19.6637 21.5573 19.9246 21.5573 20.1966C21.5574 20.4686 21.4495 20.7296 21.2572 20.922C21.0649 21.1144 20.8041 21.2226 20.532 21.2227C20.26 21.2228 19.9991 21.1148 19.8067 20.9225L15.8586 16.9744C15.7633 16.8792 15.6876 16.7661 15.636 16.6416C15.5844 16.5171 15.5579 16.3837 15.5579 16.2489C15.5579 16.1142 15.5844 15.9807 15.636 15.8562C15.6876 15.7317 15.7633 15.6187 15.8586 15.5234H15.8576Z" fill="#818182"/>
<path fill-rule="evenodd" clip-rule="evenodd" d="M10.0833 18C11.1667 18 12.2395 17.7866 13.2404 17.372C14.2413 16.9574 15.1508 16.3497 15.9169 15.5836C16.683 14.8175 17.2907 13.9081 17.7053 12.9071C18.1199 11.9062 18.3333 10.8334 18.3333 9.75C18.3333 8.66659 18.1199 7.5938 17.7053 6.59286C17.2907 5.59193 16.683 4.68245 15.9169 3.91637C15.1508 3.15029 14.2413 2.5426 13.2404 2.12799C12.2395 1.71339 11.1667 1.5 10.0833 1.5C7.89522 1.5 5.7968 2.36919 4.24962 3.91637C2.70245 5.46354 1.83325 7.56196 1.83325 9.75C1.83325 11.938 2.70245 14.0365 4.24962 15.5836C5.7968 17.1308 7.89522 18 10.0833 18ZM19.8333 9.75C19.8333 12.3359 18.806 14.8158 16.9775 16.6443C15.1491 18.4728 12.6691 19.5 10.0833 19.5C7.49739 19.5 5.01744 18.4728 3.18896 16.6443C1.36048 14.8158 0.333252 12.3359 0.333252 9.75C0.333252 7.16414 1.36048 4.68419 3.18896 2.85571C5.01744 1.02723 7.49739 0 10.0833 0C12.6691 0 15.1491 1.02723 16.9775 2.85571C18.806 4.68419 19.8333 7.16414 19.8333 9.75Z" fill="#818182"/>
</g>
<defs>
<clipPath id="clip0_3007_17504">
<rect width="24" height="24" fill="white" transform="translate(0.333252)"/>
</clipPath>
</defs>
</svg>
