<svg width="25" height="24" viewBox="0 0 25 24" fill="none" xmlns="http://www.w3.org/2000/svg">
<path fill-rule="evenodd" clip-rule="evenodd" d="M18.4343 6.219C18.5041 6.28867 18.5595 6.37143 18.5974 6.46255C18.6352 6.55367 18.6546 6.65135 18.6546 6.75C18.6546 6.84865 18.6352 6.94633 18.5974 7.03745C18.5595 7.12857 18.5041 7.21133 18.4343 7.281L7.93429 17.781C7.79346 17.9218 7.60245 18.0009 7.40329 18.0009C7.20413 18.0009 7.01312 17.9218 6.87229 17.781C6.73146 17.6402 6.65234 17.4492 6.65234 17.25C6.65234 17.0508 6.73146 16.8598 6.87229 16.719L17.3723 6.219C17.442 6.14915 17.5247 6.09374 17.6158 6.05593C17.707 6.01812 17.8046 5.99866 17.9033 5.99866C18.0019 5.99866 18.0996 6.01812 18.1907 6.05593C18.2819 6.09374 18.3646 6.14915 18.4343 6.219Z" fill="#01232B"/>
<path fill-rule="evenodd" clip-rule="evenodd" d="M6.8722 6.219C6.80235 6.28867 6.74694 6.37143 6.70913 6.46255C6.67132 6.55367 6.65186 6.65135 6.65186 6.75C6.65186 6.84865 6.67132 6.94633 6.70913 7.03745C6.74694 7.12857 6.80235 7.21133 6.8722 7.281L17.3722 17.781C17.513 17.9218 17.704 18.0009 17.9032 18.0009C18.1024 18.0009 18.2934 17.9218 18.4342 17.781C18.575 17.6402 18.6541 17.4492 18.6541 17.25C18.6541 17.0508 18.575 16.8598 18.4342 16.719L7.9342 6.219C7.86453 6.14915 7.78176 6.09374 7.69065 6.05593C7.59953 6.01812 7.50185 5.99866 7.4032 5.99866C7.30455 5.99866 7.20686 6.01812 7.11575 6.05593C7.02463 6.09374 6.94186 6.14915 6.8722 6.219Z" fill="#00050D"/>
</svg>
